<svg xmlns="http://www.w3.org/2000/svg" width="48" height="48" id="car-tire">
  <path d="M24 0C10.751 0 0 10.751 0 24s10.751 24 24 24 24-10.751 24-24S37.249 0 24 0zm0 1c12.708 0 23 10.292 23 23 0 12.709-10.292 23-23 23S1 36.709 1 24C1 11.292 11.292 1 24 1zm0 9c-7.726 0-14 6.274-14 14s6.274 14 14 14 14-6.274 14-14-6.274-14-14-14zm0 1c7.186 0 13 5.814 13 13s-5.814 13-13 13-13-5.814-13-13 5.814-13 13-13zm-1.508 1.102a.5.5 0 0 0-.1.01.5.5 0 0 0-.033.01 11.999 11.999 0 0 0-7.824 4.51.5.5 0 0 0-.06.093.5.5 0 0 0 .166.72l3.865 2.233a6.997 6.997 0 0 0-1.002 1.732l-3.83-2.2a.5.5 0 0 0-.031-.015.5.5 0 0 0-.01-.01.5.5 0 0 0-.004 0 .5.5 0 0 0-.27-.072.5.5 0 0 0-.453.317 12.002 12.002 0 0 0-.045 9.039.5.5 0 0 0 .047.092.5.5 0 0 0 .725.271l3.87-2.234c.252.626.591 1.206 1.003 1.728l-3.89 2.248a.5.5 0 0 0-.024.871 11.995 11.995 0 0 0 7.758 4.444.5.5 0 0 0 .1.01.5.5 0 0 0 .55-.508V30.92c.328.047.66.08 1 .08.34 0 .672-.033 1-.08v4.47a.5.5 0 0 0 .652.483.5.5 0 0 0 .002 0 .5.5 0 0 0 .11 0 11.999 11.999 0 0 0 7.746-4.553.5.5 0 0 0 .017-.597.5.5 0 0 0-.004-.01.5.5 0 0 0-.03-.04.5.5 0 0 0-.155-.126l-3.846-2.22a6.998 6.998 0 0 0 1.004-1.731l3.86 2.228a.5.5 0 0 0 .09.043.5.5 0 0 0 .042.014.5.5 0 0 0 .004 0 .5.5 0 0 0 .045.01.5.5 0 0 0 .104.01.5.5 0 0 0 .074-.01.5.5 0 0 0 .02 0 .5.5 0 0 0 .005 0 .5.5 0 0 0 .043-.012.5.5 0 0 0 .096-.045.5.5 0 0 0 .037-.023.5.5 0 0 0 .004 0 .5.5 0 0 0 .035-.028.5.5 0 0 0 .004 0 .5.5 0 0 0 .033-.031.5.5 0 0 0 .098-.154 12.002 12.002 0 0 0-.004-9.178.5.5 0 0 0-.469-.315.5.5 0 0 0-.29.098l-3.83 2.213a6.996 6.996 0 0 0-1.005-1.73l3.826-2.211a.5.5 0 0 0 .075-.051.5.5 0 0 0 .003 0 .5.5 0 0 0 .004 0 .5.5 0 0 0 .114-.719 12 12 0 0 0-7.93-4.582.5.5 0 0 0-.043 0 .5.5 0 0 0-.049 0 .5.5 0 0 0-.01 0 .5.5 0 0 0-.01 0 .5.5 0 0 0-.472.484v4.471A7.016 7.016 0 0 0 24 17c-.34 0-.672.031-1 .078v-4.47a.5.5 0 0 0-.508-.506zM22 13.197v4.092a6.99 6.99 0 0 0-2.803 1.627l-3.55-2.053A10.984 10.984 0 0 1 22 13.197zm4 0a10.98 10.98 0 0 1 6.355 3.668l-3.554 2.053A6.99 6.99 0 0 0 26 17.293v-4.096zm-2 4.8c1.667 0 3.172.675 4.258 1.769a.5.5 0 0 0 .187.207 5.975 5.975 0 0 1 1.309 5.715.5.5 0 0 0-.024.095A5.995 5.995 0 0 1 24 29.996c-3.32 0-6-2.68-6-6s2.68-6 6-6zm0 1c-2.756 0-5 2.244-5 5 0 2.755 2.244 5 5 5s5-2.245 5-5c0-2.756-2.244-5-5-5zm0 1c.286 0 .5.213.5.5v.55a2.946 2.946 0 0 0-.5-.05c-.171 0-.337.022-.5.05v-.55c0-.287.214-.5.5-.5zm-1.479.286c-.01.07-.021.14-.021.213v.918a3.01 3.01 0 0 0-1.082 1.082H20.5c-.072 0-.141.01-.21.022a3.985 3.985 0 0 1 2.231-2.235zm2.958 0a3.985 3.985 0 0 1 2.232 2.235c-.07-.01-.139-.022-.211-.022h-.918a3.01 3.01 0 0 0-1.082-1.082v-.918c0-.073-.011-.143-.021-.213zm8.876.043a10.979 10.979 0 0 1 0 7.34l-3.552-2.05c.124-.522.197-1.061.197-1.62 0-.558-.072-1.099-.195-1.619l3.55-2.05zm-20.714.01 3.554 2.043A6.984 6.984 0 0 0 17 23.996c0 .558.072 1.097.195 1.617l-3.552 2.051a10.98 10.98 0 0 1-.002-7.328zM24 22c1.11 0 2 .89 2 2 0 1.11-.89 2-2 2-1.11 0-2-.89-2-2 0-1.11.89-2 2-2zm-3.5 1.5h.55c-.027.163-.05.329-.05.5 0 .172.023.336.05.5h-.55a.488.488 0 0 1-.5-.5c0-.286.214-.5.5-.5zm6.45 0h.55c.286 0 .5.214.5.5 0 .286-.214.5-.5.5h-.55A2.95 2.95 0 0 0 27 24c0-.171-.023-.337-.05-.5zm-6.66 1.979c.069.01.138.021.21.021h.92a3.01 3.01 0 0 0 1.08 1.08v.92c0 .072.011.141.021.21a3.986 3.986 0 0 1-2.232-2.231zm7.42 0a3.986 3.986 0 0 1-2.231 2.232c.01-.07.021-.138.021-.211v-.92a3.01 3.01 0 0 0 1.08-1.08h.92c.072 0 .141-.01.21-.021zm-4.21 1.468c.163.028.329.053.5.053.171 0 .337-.025.5-.053v.553c0 .286-.214.5-.5.5a.488.488 0 0 1-.5-.5v-.553zm-4.3 2.133a6.99 6.99 0 0 0 2.8 1.625v4.1a10.98 10.98 0 0 1-6.357-3.672l3.556-2.053zm9.599 0 3.558 2.053A10.982 10.982 0 0 1 26 34.803v-4.1a6.99 6.99 0 0 0 2.799-1.623z" color="#000" font-family="sans-serif" font-weight="400" overflow="visible" style="line-height:normal;text-indent:0;text-align:start;text-decoration-line:none;text-decoration-style:solid;text-decoration-color:#000;text-transform:none;block-progression:tb;isolation:auto;mix-blend-mode:normal"></path>
</svg>
