<svg width="1024" height="1024" viewBox="0 0 1024 1024" xmlns="http://www.w3.org/2000/svg">
  <defs>
    <!-- Gradient for 3D effect on gear -->
    <radialGradient id="gearGradient" cx="50%" cy="50%" r="50%">
      <stop offset="0%" style="stop-color:#FFD700;stop-opacity:1" />
      <stop offset="70%" style="stop-color:#FFA500;stop-opacity:1" />
      <stop offset="100%" style="stop-color:#FF8C00;stop-opacity:1" />
    </radialGradient>
    
    <!-- Gradient for 3D effect on wrench -->
    <linearGradient id="wrenchGradient" x1="0%" y1="0%" x2="100%" y2="100%">
      <stop offset="0%" style="stop-color:#FF8C00;stop-opacity:1" />
      <stop offset="50%" style="stop-color:#FF4500;stop-opacity:1" />
      <stop offset="100%" style="stop-color:#DC143C;stop-opacity:1" />
    </linearGradient>
    
    <!-- Shadow filter -->
    <filter id="shadow" x="-50%" y="-50%" width="200%" height="200%">
      <feDropShadow dx="4" dy="4" stdDeviation="6" flood-color="#000000" flood-opacity="0.3"/>
    </filter>
  </defs>
  
  <!-- Black rounded square background -->
  <rect x="128" y="128" width="768" height="768" rx="96" ry="96" fill="#000000"/>
  
  <!-- Gear (Yellow) -->
  <g transform="translate(512, 512)">
    <!-- Gear teeth -->
    <g fill="url(#gearGradient)" filter="url(#shadow)">
      <!-- Top tooth -->
      <rect x="-16" y="-240" width="32" height="80" rx="16"/>
      <!-- Bottom tooth -->
      <rect x="-16" y="160" width="32" height="80" rx="16"/>
      <!-- Left tooth -->
      <rect x="-240" y="-16" width="80" height="32" rx="16"/>
      <!-- Right tooth -->
      <rect x="160" y="-16" width="80" height="32" rx="16"/>
      <!-- Diagonal teeth -->
      <rect x="-170" y="-170" width="32" height="80" rx="16" transform="rotate(45)"/>
      <rect x="138" y="-170" width="32" height="80" rx="16" transform="rotate(-45)"/>
      <rect x="-170" y="138" width="32" height="80" rx="16" transform="rotate(-45)"/>
      <rect x="138" y="138" width="32" height="80" rx="16" transform="rotate(45)"/>
    </g>
    
    <!-- Gear center circle -->
    <circle cx="0" cy="0" r="120" fill="url(#gearGradient)" filter="url(#shadow)"/>
    <circle cx="0" cy="0" r="80" fill="#000000"/>
  </g>
  
  <!-- Wrench (Orange) -->
  <g transform="translate(512, 512) rotate(45)">
    <g fill="url(#wrenchGradient)" filter="url(#shadow)">
      <!-- Wrench head (open end) -->
      <path d="M -120 -40 L -80 -40 L -80 -20 L -60 -20 L -60 20 L -80 20 L -80 40 L -120 40 L -120 30 L -100 30 L -100 -30 L -120 -30 Z"/>
      
      <!-- Wrench handle -->
      <rect x="-40" y="-16" width="240" height="32" rx="16"/>
      
      <!-- Wrench handle end -->
      <circle cx="200" cy="0" r="24"/>
    </g>
  </g>
</svg>


